<svg xmlns="http://www.w3.org/2000/svg" xmlns:xlink="http://www.w3.org/1999/xlink" width="93" height="93" viewBox="0 0 93 93">
  <defs>
    <filter id="Ellipse_4" x="0" y="0" width="93" height="93" filterUnits="userSpaceOnUse">
      <feOffset dy="3" input="SourceAlpha"/>
      <feGaussianBlur stdDeviation="3" result="blur"/>
      <feFlood flood-opacity="0.161"/>
      <feComposite operator="in" in2="blur"/>
      <feComposite in="SourceGraphic"/>
    </filter>
  </defs>
  <g id="Group_9892" data-name="Group 9892" transform="translate(-796 -342)">
    <g transform="matrix(1, 0, 0, 1, 796, 342)" filter="url(#Ellipse_4)">
      <g id="Ellipse_4-2" data-name="Ellipse 4" transform="translate(9 6)" fill="#fff" stroke="#d4d9fe" stroke-width="1">
        <circle cx="37.5" cy="37.5" r="37.5" stroke="none"/>
        <circle cx="37.5" cy="37.5" r="37" fill="none"/>
      </g>
    </g>
    <path id="Icon_payment-invoice-sign-alt-o" data-name="Icon payment-invoice-sign-alt-o" d="M30.788,21.394a3.345,3.345,0,0,1,.648.972,2.772,2.772,0,0,1,.231,1.157V38.795a1.108,1.108,0,0,1-.37.879,1.2,1.2,0,0,1-.879.371H12.647a1.2,1.2,0,0,1-.879-.37,1.106,1.106,0,0,1-.37-.879V17.6a1.106,1.106,0,0,1,.37-.879,1.2,1.2,0,0,1,.879-.37H24.494a2.755,2.755,0,0,1,1.157.278,3.483,3.483,0,0,1,1.018.6l4.119,4.165ZM30,38.332V24.819H24.494a1.2,1.2,0,0,1-.879-.37,1.161,1.161,0,0,1-.37-.925V18.062H13.063v20.27H30ZM16.442,26.947a.447.447,0,0,1,.139-.324.4.4,0,0,1,.278-.139h9.348a.4.4,0,0,1,.278.139.445.445,0,0,1,.139.324v.833q0,.232-.139.278a.4.4,0,0,1-.278.139H16.858a.4.4,0,0,1-.278-.139q-.139-.045-.139-.278v-.833Zm9.764,2.962a.379.379,0,0,1,.278.092.445.445,0,0,1,.139.324v.833a.445.445,0,0,1-.139.324.706.706,0,0,1-.278.092H16.858a.7.7,0,0,1-.278-.092.444.444,0,0,1-.139-.324v-.833A.447.447,0,0,1,16.581,30a.377.377,0,0,1,.278-.092Zm0,3.378a.713.713,0,0,1,.278.092.445.445,0,0,1,.139.324v.833a.445.445,0,0,1-.139.324.705.705,0,0,1-.278.092H16.858a.7.7,0,0,1-.278-.092.444.444,0,0,1-.139-.324V33.7a.447.447,0,0,1,.139-.324.707.707,0,0,1,.278-.092Zm-1.3-15.133v4.952h5a.849.849,0,0,0-.324-.509l-4.119-4.165a1.516,1.516,0,0,0-.555-.278Z" transform="translate(820.968 358.303)" fill="#0e335b"/>
  </g>
</svg>
