<svg xmlns="http://www.w3.org/2000/svg" width="19.544" height="19.543" viewBox="0 0 19.544 19.543">
  <g id="Group_4453" data-name="Group 4453" transform="translate(-1478 -490.384)">
    <path id="Path_16616" data-name="Path 16616" d="M388.426,96.3a.433.433,0,1,0,.433.433A.434.434,0,0,0,388.426,96.3Zm0,0" transform="translate(1104.818 397.759)" fill="#fff"/>
    <path id="Path_16614" data-name="Path 16614" d="M14.252,0H5.289A5.3,5.3,0,0,0,0,5.29v8.963a5.3,5.3,0,0,0,5.29,5.29h8.963a5.3,5.3,0,0,0,5.29-5.29V5.29A5.3,5.3,0,0,0,14.252,0ZM9.771,15.115a5.344,5.344,0,1,1,5.344-5.344A5.35,5.35,0,0,1,9.771,15.115Zm5.472-9.427a1.579,1.579,0,1,1,1.579-1.579A1.581,1.581,0,0,1,15.243,5.688Zm0,0" transform="translate(1478.001 490.384)" fill="#fff"/>
    <path id="Path_16615" data-name="Path 16615" d="M150.218,146.02a4.2,4.2,0,1,0,4.2,4.2A4.2,4.2,0,0,0,150.218,146.02Zm0,0" transform="translate(1337.554 349.938)" fill="#fff"/>
  </g>
</svg>
